<svg xmlns="http://www.w3.org/2000/svg" width="300" height="300" preserveAspectRatio="xMidYMid meet" version="1.0" viewBox="0 0 225 225"><g fill="#000" stroke="none"><path d="M562 1687 l-562 -562 563 -563 562 -562 563 563 562 562 -563 563 -562 562 -563 -563z m648 -138 c100 -23 174 -94 198 -191 7 -28 12 -132 12 -257 l0 -211 40 0 41 0 -3 -92 -3 -93 -86 1 c-104 1 -136 19 -170 93 l-22 48 -25 -48 c-38 -78 -104 -112 -217 -111 -70 1 -127 21 -168 60 -48 45 -62 88 -62 182 0 100 17 143 72 189 58 48 114 63 253 70 l125 6 3 42 c5 63 -28 119 -77 134 -66 20 -126 4 -180 -46 l-47 -44 -64 64 -63 64 28 33 c91 109 237 146 415 107z" transform="translate(0.000000,225.000000) scale(0.100000,-0.100000)"/><path d="M1035 1052 c-53 -18 -75 -50 -75 -107 0 -54 44 -95 102 -95 53 0 108 27 125 60 8 14 12 51 11 85 l-3 60 -70 2 c-38 1 -79 -2 -90 -5z" transform="translate(0.000000,225.000000) scale(0.100000,-0.100000)"/></g></svg>